# xmcd
#
# Track frame offsets: 
#        150
#        14819
#        24446
#        39460
#        52817
#        66873
#        94526
#        112130
#        123999
#        133935
#        143153
#        152131
#        169656
#        178038
#        198301
#        199268
#        212985
#        224591
#
# Disc length: 3196 seconds
#
# Revision: 0
# Processed by: cddbd v1.5.1PL0 Copyright (c) Steve Scherf et al.
# Submitted via: ExactAudioCopy v0.90b4
#
DISCID=120c7a12
DTITLE=Various Artist - Soul Fire: The Majestic Collection [CD2]
DYEAR=2005
DGENRE=Funk
TTITLE0=Soul Diggers - Soul Dig
TTITLE1=The Fabulous Three - Nightbird
TTITLE2=The Fabulous Three - Recording #82
TTITLE3=The Explorers - Clap Your Hands
TTITLE4=El Michels Affair - Spread Your Soul
TTITLE5=The Whitefield Brothers - Weiya (Serengeti Beat)
TTITLE6=JD and The Evil's Dynamite Band - Beer (So Nice), Right On
TTITLE7=Bama and The Family - Googie
TTITLE8=Soul Command - Your Love
TTITLE9=The Fabulous Three - Whitesands
TTITLE10=The Whitefield Brothers - Serengeti Bonus Beat
TTITLE11=Lee Fields - Rapping With Lee
TTITLE12=The Fabulous Three - Django's Soul
TTITLE13=Jojo Kuo and His Challengers - Brick By Brick
TTITLE14=The Fabulous Three - Nightbird Bonus Beat
TTITLE15=Third Point - Majestic Soul
TTITLE16=The Fabulous Three - Pep's
TTITLE17=Lee Fields - You Made A New Man Out Of Me
EXTD=
EXTT0=
EXTT1=
EXTT2=
EXTT3=
EXTT4=
EXTT5=
EXTT6=
EXTT7=
EXTT8=
EXTT9=
EXTT10=
EXTT11=
EXTT12=
EXTT13=
EXTT14=
EXTT15=
EXTT16=
EXTT17=
PLAYORDER=
